<?xml version="1.0" encoding="UTF-8" standalone="no"?>
<svg
   xmlns:dc="http://purl.org/dc/elements/1.1/"
   xmlns:cc="http://creativecommons.org/ns#"
   xmlns:rdf="http://www.w3.org/1999/02/22-rdf-syntax-ns#"
   xmlns:svg="http://www.w3.org/2000/svg"
   xmlns="http://www.w3.org/2000/svg"
   viewBox="0 0 742.66669 742.66669"
   height="742.66669"
   width="742.66669"
   xml:space="preserve"
   id="svg2"
   version="1.1"><metadata
     id="metadata8"><rdf:RDF><cc:Work
         rdf:about=""><dc:format>image/svg+xml</dc:format><dc:type
           rdf:resource="http://purl.org/dc/dcmitype/StillImage" /></cc:Work></rdf:RDF></metadata><defs
     id="defs6" /><g
     transform="matrix(1.3333333,0,0,-1.3333333,0,742.66667)"
     id="g10"><g
       transform="scale(0.1)"
       id="g12"><path
         id="path14"
         style="fill:#ffffff;fill-opacity:1;fill-rule:evenodd;stroke:none"
         d="M 3052.09,5547.91 C 4574.96,5400.34 5696.67,4037.92 5549.1,2515.03 5401.54,992.152 4039.12,-129.559 2516.24,18.0117 993.355,165.574 -128.355,1527.99 19.2109,3050.87 166.773,4573.77 1529.19,5695.46 3052.09,5547.91" /><path
         id="path16"
         style="fill:#f79210;fill-opacity:1;fill-rule:evenodd;stroke:none"
         d="M 3052.09,5547.91 C 4574.96,5400.34 5696.67,4037.92 5549.1,2515.03 5401.54,992.152 4039.12,-129.559 2516.24,18.0117 993.355,165.574 -128.355,1527.99 19.2109,3050.87 166.773,4573.77 1529.19,5695.46 3052.09,5547.91" /><path
         id="path18"
         style="fill:#ffffff;fill-opacity:1;fill-rule:evenodd;stroke:none"
         d="M 3049.35,5519.7 C 4556.68,5373.64 5666.95,4025.11 5520.89,2517.77 5374.84,1010.43 4026.32,-99.8398 2518.97,46.2227 1011.63,192.281 -98.6367,1540.8 47.4258,3048.14 193.48,4555.49 1542,5665.75 3049.35,5519.7" /><path
         id="path20"
         style="fill:#f79210;fill-opacity:1;fill-rule:evenodd;stroke:none"
         d="M 3099.53,37.9805 C 3192.07,1118.3 4335.78,2010.95 5372.23,1795.56 5151.08,1215.22 4516,236.5 3099.53,37.9805" /><path
         id="path22"
         style="fill:#f79210;fill-opacity:1;fill-rule:evenodd;stroke:none"
         d="M 1972.39,144.352 C 1881.81,890.516 1082.14,1737.27 230.973,1722.46 410.836,1290.15 900.82,466.566 1972.39,144.352" /><path
         id="path24"
         style="fill:#f79210;fill-opacity:1;fill-rule:evenodd;stroke:none"
         d="m 1880.66,5394.48 c 41.95,-200.78 45.61,-398.29 29.15,-613.12 C 1819.82,3606.99 1006.28,2981.18 19.4609,2901.1 94.7305,4355.89 1150.75,5157.55 1880.66,5394.48" /><path
         id="path26"
         style="fill:#f79210;fill-opacity:1;fill-rule:evenodd;stroke:none"
         d="M 3093.79,5536.46 C 2661.36,4054.81 3874.3,2631.38 5550.56,2990.27 5348.91,4431.08 4413.24,5331.75 3093.79,5536.46" /><path
         id="path28"
         style="fill:#ffffff;fill-opacity:1;fill-rule:evenodd;stroke:none"
         d="m 401.66,1720.54 6.457,-9.07 6.446,-9.06 6.437,-9.04 6.438,-9.07 6.445,-9.06 6.433,-9.06 6.446,-9.06 6.441,-9.07 6.457,-9.07 6.445,-9.07 6.438,-9.04 6.437,-9.07 6.446,-9.05 6.429,-9.06 6.45,-9.06 6.441,-9.08 6.453,-9.07 6.446,-9.07 6.437,-9.04 6.441,-9.06 6.446,-9.06 6.429,-9.06 6.446,-9.07 26.023,-36.64 50.406,12.55 17.704,4.66 17.515,4.88 17.336,5.06 17.152,5.28 16.969,5.48 16.793,5.67 16.617,5.87 16.461,6.08 16.282,6.26 16.117,6.44 15.957,6.66 15.797,6.83 15.625,7.01 15.484,7.2 15.328,7.37 15.188,7.56 15.027,7.73 14.898,7.9 14.75,8.08 14.614,8.24 14.48,8.42 14.352,8.57 14.219,8.74 14.092,8.89 13.98,9.06 13.86,9.21 13.73,9.35 13.63,9.52 13.52,9.66 13.4,9.81 13.64,10.18 5.95,4.7 5.59,4.55 5.53,4.59 5.45,4.67 5.4,4.74 5.31,4.8 5.23,4.82 5.17,4.89 5.11,4.95 5.02,4.98 4.97,5.05 4.88,5.09 4.82,5.13 4.74,5.16 4.68,5.22 4.61,5.24 4.54,5.29 4.46,5.32 4.39,5.35 4.33,5.38 4.26,5.41 4.19,5.45 4.11,5.46 4.04,5.48 3.98,5.5 3.91,5.54 3.85,5.56 3.76,5.56 3.7,5.57 3.64,5.6 3.56,5.61 3.59,5.77 1.8,3.01 1.84,3.24 1.85,3.4 1.81,3.5 1.77,3.59 1.76,3.72 1.74,3.85 1.73,3.98 1.73,4.13 1.7,4.27 1.69,4.42 1.67,4.56 1.65,4.7 1.63,4.86 1.61,5.01 1.57,5.14 1.55,5.29 1.52,5.45 1.5,5.61 1.46,5.76 1.42,5.91 1.39,6.07 1.34,6.23 1.28,6.34 1.26,6.52 1.2,6.68 1.16,6.86 1.09,7 1.04,7.13 0.98,7.32 0.91,7.46 0.88,7.81 0.34,3.64 0.23,4.19 0.14,4.11 0.06,4.25 v 4.41 l -0.06,4.58 -0.11,4.73 -0.17,4.84 -0.22,4.97 -0.28,5.08 -0.33,5.11 -0.39,5.1 -0.44,5.14 -0.51,5.11 -0.57,5.06 -0.62,4.78 -0.44,3.17 -0.4,2.89 -0.41,2.87 -0.39,2.81 -0.38,2.84 -0.41,2.93 -0.41,2.91 -0.4,2.89 -0.41,2.94 -0.43,3.01 -0.44,3.09 -0.45,3.07 -0.46,3.13 -0.49,3.22 -0.5,3.28 -0.52,3.29 -0.53,3.35 -0.57,3.49 -0.59,3.6 -0.62,3.62 -0.64,3.7 -0.68,3.82 -0.71,3.93 -0.74,4.01 -0.76,4.09 -0.82,4.24 -0.85,4.38 -0.89,4.45 -0.92,4.58 -0.98,4.75 -1.02,4.88 -1.13,5.33 -7.35,32.1 -7.32,31.82 -7.36,31.83 -7.4,31.86 -7.43,31.89 -7.46,31.92 -7.51,31.93 -7.53,31.94 -7.56,31.98 -7.59,31.99 -7.62,32.01 -7.66,32.02 -7.66,32.04 -7.69,32.04 -7.72,32.06 -7.73,32.07 -7.75,32.06 -7.77,32.08 -7.78,32.08 -7.8,32.09 -7.8,32.09 -7.82,32.1 -7.83,32.09 -7.84,32.09 -7.83,32.07 -7.84,32.08 -7.84,32.07 -7.86,32.06 -7.84,32.06 -7.85,32.04 -27.48,112.3 -842.215,-207.35 4.801,-456.26 494.648,101.34 4.481,-14.75 5.894,-19.29 5.887,-19.23 5.863,-19.13 5.836,-19.05 5.785,-18.98 5.723,-18.89 5.649,-18.81 5.55,-18.71 5.442,-18.65 5.324,-18.55 5.187,-18.46 5.04,-18.37 4.871,-18.29 4.707,-18.19 4.507,-18.1 4.301,-17.99 4.082,-17.91 3.856,-17.81 3.605,-17.72 3.352,-17.61 3.082,-17.51 2.801,-17.4 2.5,-17.29 2.191,-17.19 1.867,-17.09 1.547,-16.98 1.191,-16.87 0.84,-16.75 0.453,-16.1 -0.043,-2.63 -0.097,-3.47 -0.133,-3.5 -0.172,-3.52 -0.207,-3.53 -0.242,-3.52 -0.274,-3.52 -0.32,-3.56 -0.344,-3.57 -0.378,-3.54 -0.415,-3.56 -0.453,-3.61 -0.472,-3.58 -0.512,-3.58 -0.535,-3.59 -0.582,-3.64 -0.602,-3.64 -0.633,-3.63 -0.656,-3.62 -0.695,-3.65 -0.715,-3.66 -0.746,-3.66 -0.766,-3.66 -0.804,-3.7 -0.829,-3.7 -0.843,-3.67 -0.875,-3.71 -0.907,-3.74 -0.914,-3.69 -0.945,-3.73 -0.965,-3.74 -0.605,-2.27 -0.52,-1.56 -0.914,-2.45 -1.043,-2.59 -1.172,-2.69 -1.297,-2.78 -1.429,-2.88 -1.547,-2.94 -1.672,-3.01 -1.773,-3.07 -1.875,-3.07 -2,-3.16 -2.094,-3.19 -2.184,-3.19 -2.265,-3.21 -2.336,-3.19 -2.438,-3.21 -2.5,-3.21 -2.551,-3.18 -2.601,-3.15 -2.66,-3.12 -2.723,-3.11 -2.77,-3.09 -2.769,-3.01 -2.809,-2.97 -2.832,-2.92 -2.832,-2.84 -2.843,-2.78 -2.852,-2.72 -2.828,-2.62 -2.824,-2.55 -2.797,-2.47 -1.957,-1.67 -6.289,-4.78 -7.121,-5.19 -7.235,-5.06 -7.355,-4.93 -7.5,-4.82 -7.66,-4.72 -7.821,-4.61 -8.008,-4.55 -8.187,-4.45 -8.398,-4.41 -8.614,-4.34 -8.84,-4.29 -9.07,-4.23 -9.328,-4.22 -9.59,-4.2 -9.844,-4.16 -10.113,-4.16 -10.406,-4.15 -10.703,-4.16 -11.004,-4.19 -11.297,-4.18 -11.629,-4.23 -11.949,-4.26 -12.278,-4.3 -12.613,-4.36 -12.969,-4.41 -13.32,-4.48 -13.68,-4.56 -14.05,-4.64 -14.434,-4.75 -14.809,-4.85 -79.418,-25.88 45.59,-64.06 6.446,-9.06 6.437,-9.04 6.438,-9.06 6.449,-9.06 6.433,-9.06 6.446,-9.07 6.441,-9.07" /><path
         id="path30"
         style="fill:#102e57;fill-opacity:1;fill-rule:evenodd;stroke:none"
         d="m 390.547,1821.78 c 68.723,-96.66 137.445,-193.33 206.172,-289.99 184.957,44.68 336.781,123.68 473.841,227.24 55.3,43.1 100.41,97.29 134.65,152.93 13.79,22.47 32.39,71.62 40.53,148.04 1.25,10.98 0.22,41.84 -2.75,63.44 -4.44,31.26 -7.4,57.79 -18.66,110.45 -77.27,338.25 -161.92,682.09 -245.459,1023.54 l -755.816,-186.08 3.75,-356.83 480.16,98.38 c 61.269,-206.95 133.289,-406.07 136.555,-595.09 -0.512,-42.89 -8.465,-85.56 -19.758,-127.93 -12.949,-40.66 -51.035,-86.42 -86.09,-115.97 -82.859,-64.36 -182.551,-98.59 -347.125,-152.13" /><path
         id="path32"
         style="fill:#ffffff;fill-opacity:1;fill-rule:evenodd;stroke:none"
         d="m 1247.11,2493.07 523.44,133.99 90.88,-323.93 -528.89,-152.97 -85.43,342.91" /><path
         id="path34"
         style="fill:#102e57;fill-opacity:1;fill-rule:evenodd;stroke:none"
         d="m 1307.16,2457.25 428.72,109.73 64.49,-229.87 -432.14,-124.99 -61.07,245.13" /><path
         id="path36"
         style="fill:#ffffff;fill-opacity:1;fill-rule:evenodd;stroke:none"
         d="m 2332.74,2837.87 -3.07,-6.53 -2.97,-6.53 -2.88,-6.48 -2.77,-6.5 -2.69,-6.52 -2.58,-6.52 -2.49,-6.5 -2.38,-6.53 -2.29,-6.56 -2.19,-6.59 -2.08,-6.6 -1.98,-6.63 -1.89,-6.71 -1.78,-6.75 -1.67,-6.79 -1.57,-6.85 -1.48,-6.95 -1.35,-7 -1.26,-7.09 -1.14,-7.17 -1.04,-7.27 -0.92,-7.36 -0.81,-7.47 -0.69,-7.58 -0.57,-7.71 -0.46,-7.82 -0.36,-8.56 -0.15,-2.92 -0.08,-2.5 -0.06,-2.64 -0.02,-2.73 0.02,-2.87 0.05,-2.92 0.08,-2.95 0.1,-2.97 0.14,-2.91 0.16,-2.86 0.18,-2.85 0.19,-2.73 0.21,-2.55 0.22,-2.45 0.22,-2.21 0.23,-2.09 0.38,-3.19 0.39,-3.26 0.4,-3.15 0.37,-3 0.4,-2.85 0.4,-2.74 0.42,-2.64 0.43,-2.51 0.45,-2.42 0.48,-2.32 0.51,-2.25 0.52,-2.18 0.57,-2.1 0.61,-2.09 0.65,-2.04 1.24,-3.61 2.84,-9.48 2.51,-7.65 2.68,-7.42 2.83,-7.21 2.98,-6.99 3.13,-6.78 3.29,-6.59 3.42,-6.38 3.59,-6.17 3.73,-6.01 3.88,-5.82 4.01,-5.64 4.18,-5.47 4.34,-5.31 4.48,-5.15 4.62,-4.98 4.79,-4.81 4.97,-4.7 5.12,-4.56 5.29,-4.39 5.45,-4.26 5.64,-4.12 5.83,-4.01 5.98,-3.85 6.17,-3.71 6.38,-3.61 6.57,-3.45 6.74,-3.33 6.94,-3.18 7.15,-3.07 7.34,-2.93 3.84,-1.42 8.17,-1.42 12.12,-1.86 12.05,-1.62 11.95,-1.39 11.88,-1.14 11.8,-0.91 11.72,-0.66 11.63,-0.43 11.56,-0.19 11.48,0.04 11.4,0.28 11.32,0.51 11.25,0.74 11.17,0.95 11.1,1.2 11.01,1.42 10.94,1.63 10.86,1.87 10.81,2.09 10.72,2.32 10.64,2.53 10.58,2.75 10.52,2.99 10.43,3.18 3.25,1.07 -2.58,0.75 -6.56,1.7 -6.9,1.57 -7.26,1.41 -7.63,1.27 -7.97,1.13 -8.31,0.96 -8.65,0.79 -9.01,0.64 -9.34,0.44 -9.67,0.29 -10.01,0.09 -10.34,-0.08 -10.65,-0.27 -10.97,-0.44 -11.29,-0.65 -55.6,-3.99 -43.05,216.14 638.98,105.42 159.29,-634.64 -62.17,-20.28 -18.26,-5.89 -18.26,-5.84 -18.29,-5.77 -18.28,-5.68 -18.29,-5.64 -18.29,-5.53 -18.32,-5.48 -18.32,-5.37 -18.32,-5.29 -18.34,-5.21 -18.34,-5.11 -18.36,-5.01 -18.36,-4.89 -18.37,-4.82 -18.38,-4.7 -18.41,-4.59 -18.39,-4.46 -18.4,-4.35 -18.42,-4.24 -18.43,-4.1 -18.44,-3.98 -18.44,-3.85 -18.47,-3.71 -18.47,-3.57 -18.47,-3.44 -18.49,-3.28 -18.51,-3.14 -18.51,-2.98 -18.51,-2.83 -18.53,-2.66 -19.59,-2.64 -21.8,-1.82 -20.56,-1.47 -20.3,-1.21 -20.07,-0.93 -19.8,-0.64 -19.57,-0.38 -19.32,-0.09 -19.09,0.19 -18.86,0.49 -18.61,0.79 -18.38,1.09 -18.17,1.38 -17.94,1.71 -17.71,2.01 -17.5,2.33 -17.27,2.66 -17.06,2.99 -16.84,3.31 -16.63,3.65 -16.41,3.99 -16.2,4.34 -15.99,4.69 -15.77,5.05 -15.57,5.39 -15.35,5.77 -15.13,6.12 -14.92,6.49 -14.71,6.87 -14.48,7.25 -14.25,7.6 -14.05,7.98 -13.29,8.03 -2.66,1.62 -2.92,1.81 -2.95,1.87 -3.04,1.96 -3.09,2.06 -3.11,2.11 -3.18,2.21 -3.27,2.32 -3.32,2.41 -3.32,2.46 -3.4,2.57 -3.49,2.69 -3.54,2.78 -3.59,2.88 -3.64,2.99 -5.55,4.59 -13.11,13.46 -11.27,12.06 -10.88,12.19 -10.5,12.31 -10.12,12.46 -9.75,12.57 -9.37,12.7 -9.02,12.87 -8.66,13 -8.3,13.15 -7.95,13.3 -7.61,13.44 -7.28,13.62 -6.95,13.75 -6.62,13.92 -6.31,14.08 -6.01,14.25 -5.7,14.41 -5.42,14.6 -5.14,14.76 -4.86,14.94 -4.61,15.11 -4.35,15.31 -4.11,15.51 -3.87,15.7 -3.66,15.88 -3.44,16.1 -3.24,16.33 -3.04,16.55 -2.86,16.75 -2.68,17 -2.68,18.35 -1.78,20 -1.43,18.95 -1.16,18.94 -0.89,18.94 -0.6,18.93 -0.31,18.91 -0.01,18.89 0.3,18.89 0.62,18.86 0.94,18.83 1.28,18.79 1.61,18.75 1.98,18.72 2.33,18.68 2.7,18.62 3.07,18.58 3.47,18.52 3.85,18.45 4.25,18.38 4.67,18.31 5.09,18.23 5.51,18.15 5.95,18.04 6.38,17.98 6.85,17.84 7.3,17.77 7.76,17.63 8.23,17.51 8.72,17.4 9.19,17.25 9.69,17.11 10.84,18.06 14.68,20.69 14.32,19.28 14.75,19.01 15.18,18.74 15.61,18.47 16.01,18.21 16.43,17.96 16.85,17.72 17.27,17.5 17.67,17.25 18.07,17.04 18.47,16.86 18.89,16.63 19.27,16.47 19.67,16.28 20.07,16.13 20.47,15.95 20.86,15.81 21.24,15.68 21.64,15.55 22.03,15.43 22.41,15.31 22.79,15.23 23.19,15.14 23.57,15.04 23.95,14.98 24.34,14.92 24.71,14.88 25.11,14.83 25.47,14.8 25.87,14.77 65.5,36.88 270.79,-391.52 -72.41,-44.82 -27.15,-16.81 -26.25,-16.31 -25.39,-15.83 -24.52,-15.37 -23.68,-14.94 -22.84,-14.52 -22.01,-14.12 -21.18,-13.75 -20.4,-13.41 -19.59,-13.06 -18.8,-12.74 -18.03,-12.47 -17.26,-12.19 -16.51,-11.93 -15.77,-11.68 -15.02,-11.47 -14.3,-11.29 -13.61,-11.1 -12.89,-10.92 -12.22,-10.79 -11.55,-10.64 -10.89,-10.55 -10.26,-10.44 -9.64,-10.37 -9.05,-10.32 -8.48,-10.31 -7.94,-10.28 -7.4,-10.31 -6.91,-10.36 -6.44,-10.45 -6.1,-10.74 -3.28,-6.22 -3.44,-6.61 -3.35,-6.62 -3.27,-6.57 -3.15,-6.54" /><path
         id="path38"
         style="fill:#102e57;fill-opacity:1;fill-rule:evenodd;stroke:none"
         d="m 2617.86,3620.84 215.37,-311.4 c -303.88,-187.87 -456.63,-284.51 -527.5,-415.17 -40.14,-74.98 -66.72,-147.66 -69.91,-241.69 -0.99,-16.42 0.23,-38.02 1.77,-51.08 2.16,-18.41 4.13,-34.86 10.27,-51.89 28.07,-98.72 91.48,-162.09 184.98,-195.36 140.16,-25.66 269.04,-6.5 383.69,52.25 -34.86,57.19 -120.13,80.46 -253.01,70.02 l -24.48,122.94 543.32,89.64 136.9,-545.45 c -193.14,-63.39 -386.29,-116.63 -579.43,-141.83 -217.53,-19.37 -386.4,5.09 -520.51,88.73 -12.86,7.69 -27.81,18.07 -46.08,33.41 -118.59,119.01 -168.58,250.16 -193.78,429.72 -18.73,195.09 4.41,387.27 108.67,555.96 139.26,200.94 350.65,355.32 629.73,511.2" /><path
         id="path40"
         style="fill:#ffffff;fill-opacity:1;fill-rule:evenodd;stroke:none"
         d="m 3922,3961.11 312.54,-376.7 -75.22,-32.06 -13.73,-5.96 -13.63,-6.03 -13.52,-6.09 -13.43,-6.15 -13.33,-6.23 -13.22,-6.3 -13.11,-6.37 -13.04,-6.46 -12.93,-6.55 -12.83,-6.64 -12.75,-6.71 -12.66,-6.82 -12.56,-6.91 -12.47,-7.01 -12.38,-7.11 -12.31,-7.22 -12.22,-7.31 -12.13,-7.45 -12.05,-7.55 -11.98,-7.66 -11.89,-7.79 -11.82,-7.92 -11.74,-8.03 -11.68,-8.18 -11.6,-8.31 -11.53,-8.43 -11.46,-8.59 -11.39,-8.72 -11.33,-8.89 -11.27,-9.02 -10.83,-8.88 -9.03,-7.86 -9.25,-8.39 -9.24,-8.68 -9.2,-8.97 -9.14,-9.25 -9.05,-9.52 -8.96,-9.8 -8.84,-10.07 -8.71,-10.34 -8.54,-10.57 -8.38,-10.84 -8.18,-11.06 -7.98,-11.31 -7.73,-11.53 -7.5,-11.73 -7.23,-11.95 -6.96,-12.17 -6.66,-12.38 -6.35,-12.55 -6.01,-12.75 -5.67,-12.93 -5.31,-13.1 -4.94,-13.28 -4.53,-13.44 -4.15,-13.61 -3.7,-13.76 -3.28,-13.93 -2.82,-14.08 -2.37,-14.23 -1.88,-14.38 -1.39,-14.52 -0.8,-13.38 0.28,-9.86 0.59,-11.2 0.85,-10.94 1.12,-10.7 1.37,-10.43 1.63,-10.15 1.9,-9.89 2.16,-9.64 2.42,-9.37 2.67,-9.11 2.92,-8.83 3.19,-8.59 3.44,-8.32 3.7,-8.08 3.96,-7.81 4.23,-7.59 4.5,-7.37 4.77,-7.13 5.04,-6.92 5.35,-6.7 5.64,-6.51 5.95,-6.31 6.28,-6.12 6.62,-5.93 6.96,-5.75 7.33,-5.56 7.72,-5.39 8.12,-5.18 8.5,-5 8.94,-4.82 9.36,-4.61 9.36,-4.22 8.53,-3.29 9.07,-2.81 10.11,-2.46 11.13,-2.06 12.09,-1.62 13.07,-1.16 13.99,-0.7 14.87,-0.22 15.69,0.29 16.51,0.76 17.29,1.26 18.04,1.72 18.75,2.21 19.44,2.68 20.11,3.12 20.75,3.56 21.36,3.99 21.97,4.41 22.53,4.8 23.09,5.21 23.63,5.58 24.14,5.95 24.64,6.28 25.11,6.63 25.57,6.96 26.02,7.26 26.44,7.56 26.85,7.84 27.23,8.1 27.62,8.36 27.97,8.58 92.48,28.84 1.8,-438.67 -58.85,-19.33 -24.65,-7.91 -24.56,-7.67 -24.46,-7.45 -24.37,-7.21 -24.29,-6.97 -24.17,-6.73 -24.08,-6.48 -23.96,-6.21 -23.86,-5.97 -23.75,-5.69 -23.63,-5.43 -23.52,-5.15 -23.39,-4.88 -23.26,-4.59 -23.15,-4.31 -23.02,-4.01 -22.88,-3.72 -22.75,-3.4 -22.61,-3.11 -22.48,-2.77 -22.33,-2.48 -22.19,-2.14 -22.03,-1.82 -21.9,-1.48 -21.73,-1.15 -21.57,-0.79 -21.43,-0.45 -21.25,-0.08 -21.1,0.27 -20.92,0.64 -22.29,1.09 -9.52,1.25 -7.7,1.05 -7.73,1.11 -7.77,1.16 -7.82,1.22 -7.85,1.31 -7.89,1.38 -7.93,1.47 -7.97,1.55 -8.01,1.65 -8.04,1.75 -8.07,1.86 -8.12,1.96 -8.13,2.08 -8.18,2.2 -8.24,2.35 -8.26,2.47 -8.27,2.61 -8.31,2.75 -8.34,2.91 -8.38,3.05 -8.4,3.23 -8.42,3.38 -8.46,3.56 -8.48,3.75 -8.49,3.91 -8.51,4.09 -8.54,4.29 -8.57,4.48 -8.57,4.69 -8.59,4.88 -9.99,5.9 -9.5,6.74 -7.96,5.81 -7.84,5.88 -7.72,5.98 -7.59,6.06 -7.45,6.13 -7.32,6.21 -7.2,6.3 -7.07,6.37 -6.93,6.45 -6.81,6.54 -6.67,6.62 -6.54,6.68 -6.4,6.77 -6.27,6.86 -6.13,6.93 -6.01,7.01 -5.86,7.09 -5.73,7.16 -5.59,7.25 -5.46,7.32 -5.31,7.42 -5.18,7.47 -5.03,7.55 -4.9,7.64 -4.75,7.7 -4.63,7.79 -4.47,7.86 -4.32,7.92 -4.19,8.01 -4.05,8.07 -4.23,8.84 -7.47,17.78 -6.83,17.14 -6.48,17.17 -6.13,17.22 -5.79,17.26 -5.44,17.3 -5.09,17.33 -4.73,17.35 -4.39,17.36 -4.06,17.37 -3.69,17.38 -3.36,17.41 -3.02,17.39 -2.67,17.4 -2.33,17.4 -1.98,17.38 -1.66,17.36 -1.31,17.36 -0.97,17.32 -0.63,17.3 -0.3,17.27 0.05,17.23 0.37,17.19 0.72,17.15 1.04,17.08 1.38,17.06 1.72,16.99 2.04,16.93 2.37,16.85 2.71,16.78 3.03,16.72 3.47,17.18 2.79,11.32 2.65,10.36 2.72,10.25 2.79,10.16 2.86,10.05 2.94,9.98 3.03,9.88 3.12,9.82 3.2,9.74 3.31,9.66 3.41,9.6 3.52,9.57 3.63,9.49 3.74,9.45 3.85,9.42 3.99,9.38 4.1,9.33 4.24,9.3 4.36,9.28 4.52,9.28 4.63,9.25 4.79,9.23 4.94,9.25 5.08,9.25 5.23,9.23 5.39,9.26 5.55,9.27 5.72,9.31 5.88,9.32 6.05,9.35 6.22,9.39 6.24,9.22 7.18,10.63 7.47,10.74 7.56,10.6 7.66,10.47 7.75,10.34 7.84,10.19 7.92,10.08 8.02,9.96 8.08,9.81 8.17,9.69 8.24,9.56 8.33,9.47 8.38,9.33 8.46,9.22 8.51,9.11 8.59,9 8.64,8.88 8.7,8.79 8.76,8.68 8.79,8.58 8.86,8.47 8.89,8.4 8.95,8.29 9,8.19 9.01,8.12 9.07,8.03 9.1,7.94 9.13,7.86 9.15,7.78 9.18,7.7 9.21,7.63 10.08,8.25 11.12,8.23 10.25,7.53 10.25,7.49 10.29,7.46 10.32,7.42 10.35,7.42 10.38,7.35 10.4,7.35 10.43,7.31 10.46,7.27 10.48,7.23 10.51,7.21 10.54,7.17 10.57,7.15 10.6,7.11 10.63,7.07 10.65,7.04 10.69,7 10.7,6.97 10.75,6.94 10.77,6.89 10.8,6.86 10.83,6.83 10.87,6.8 10.89,6.75 10.92,6.71 10.95,6.69 10.99,6.63 11.01,6.61 11.05,6.57 11.06,6.52 47.36,27.7" /><path
         id="path42"
         style="fill:#102e57;fill-opacity:1;fill-rule:evenodd;stroke:none"
         d="m 3910.7,3897.03 243.16,-293.08 c -151.25,-63.9 -285.71,-138.5 -409.39,-241 -106.04,-90.76 -214.02,-237.06 -221.4,-413.49 2.31,-135.67 53.85,-237.56 177.39,-290.58 117.15,-50.35 370.41,10.27 675.88,106.08 l 1.38,-335.45 c -260.81,-86.73 -505.74,-136.12 -716.24,-123.81 -78.82,10.07 -158.85,26.79 -242.98,77.51 -81.04,56.58 -139.97,124.33 -176.85,203.09 -74.6,173.02 -91.67,353.53 -56.27,520.24 26.31,108.31 61.08,193.22 127.15,289.7 74.35,111.36 165.81,200.06 262.07,278.43 107.47,79.76 219.22,154.37 336.1,222.36" /><path
         id="path44"
         style="fill:#ffffff;fill-opacity:1;fill-rule:evenodd;stroke:none"
         d="m 4216.5,4077.64 491.65,127.17 273.72,-1210.12 435.18,97.84 -42.71,-466.56 -749.55,-191.45 -408.29,1643.12" /><path
         id="path46"
         style="fill:#102e57;fill-opacity:1;fill-rule:evenodd;stroke:none"
         d="m 4276.5,4041.91 394.55,102.06 273.36,-1208.54 417.03,93.75 -33.31,-363.8 -667.24,-170.45 -384.39,1546.98" /></g></g></svg>