<?xml version="1.0" standalone="no"?>
<!DOCTYPE svg PUBLIC "-//W3C//DTD SVG 20010904//EN"
 "http://www.w3.org/TR/2001/REC-SVG-20010904/DTD/svg10.dtd">
<svg version="1.0" xmlns="http://www.w3.org/2000/svg"
 width="700.000000pt" height="700.000000pt" viewBox="0 0 700.000000 700.000000"
 preserveAspectRatio="xMidYMid meet">
<metadata>
Created by potrace 1.11, written by Peter Selinger 2001-2013
</metadata>
<g transform="translate(0.000000,700.000000) scale(0.100000,-0.100000)"
fill="#000000" stroke="none">
<path d="M5626 5145 c-132 -34 -241 -66 -243 -72 -5 -14 466 -1915 477 -1926
6 -6 328 72 801 194 l36 9 17 202 c9 112 19 213 22 226 3 17 0 22 -15 22 -10
0 -128 -25 -261 -55 -134 -30 -244 -54 -245 -53 -2 2 -78 336 -169 743 -92
407 -170 747 -174 756 -6 14 -36 9 -246 -46z"/>
<path d="M4812 4835 c-238 -149 -354 -236 -481 -364 -309 -310 -413 -670 -310
-1068 35 -136 91 -236 179 -324 134 -132 266 -179 499 -179 200 0 420 38 675
115 64 19 118 35 121 35 3 0 5 95 5 210 0 116 -2 210 -5 210 -3 0 -67 -18
-143 -40 -385 -111 -595 -135 -714 -83 -203 91 -266 347 -147 602 91 196 290
369 596 518 l132 64 -146 177 c-80 97 -149 180 -152 184 -4 4 -53 -21 -109
-57z"/>
<path d="M3180 4486 c-225 -133 -387 -253 -514 -380 -145 -146 -218 -263 -272
-441 -27 -86 -28 -99 -28 -305 0 -190 2 -224 21 -292 86 -307 228 -461 488
-529 124 -33 362 -37 525 -10 243 40 640 151 640 179 0 22 -161 656 -169 664
-4 5 -670 -98 -678 -106 0 0 6 -36 14 -78 l16 -78 82 0 c100 0 172 -20 209
-58 l27 -29 -63 -26 c-96 -38 -172 -50 -304 -45 -100 3 -126 8 -162 27 -205
107 -259 357 -133 618 44 91 96 154 194 236 64 53 277 198 427 289 l61 38 -54
77 c-30 43 -87 125 -126 183 -40 58 -78 110 -85 117 -8 9 -35 -3 -116 -51z"/>
<path d="M765 3981 c-236 -59 -442 -110 -457 -114 l-28 -7 0 -219 c0 -120 2
-220 5 -223 3 -2 121 19 263 49 141 29 276 56 299 59 l41 6 36 -114 c131 -421
160 -625 111 -787 -13 -43 -30 -68 -78 -116 -74 -72 -169 -124 -344 -185
l-121 -42 125 -177 c69 -97 127 -178 129 -180 8 -9 172 43 267 85 278 122 477
293 528 454 47 145 37 198 -221 1255 -94 387 -88 365 -108 364 -9 -1 -210 -49
-447 -108z"/>
<path d="M1990 3180 c-80 -22 -191 -51 -246 -65 l-101 -27 37 -150 c21 -82 40
-151 42 -153 1 -2 117 30 257 71 140 41 260 74 268 74 17 0 15 14 -31 174 -29
102 -34 111 -56 112 -14 1 -90 -15 -170 -36z"/>
</g>
</svg>
